# xmcd
#
# Track frame offsets:
#	182
#	18987
#	40120
#	55297
#	70645
#	84270
#	108787
#	123477
#	148370
#	162160
#	178207
#	197272
#	212862
#	222605
#	237747
#
# Disc length: 3333
#
# Revision: 3
# Processed by: cddbd v1.5.1PL0 Copyright (c) Steve Scherf et al.
# Submitted via: audiograbber 1.83.01
# Normalized: r2:DSETVAR1
#
DISCID=db0d030f
DTITLE=Various Artist - Soul Classics 1975 - (Volume 10)
DYEAR=1999
DGENRE=Soul
TTITLE0=Ben E. King - Supernatural Thing (Part 1)
TTITLE1=The Spinners - They Just Can't Stop It (The Games People Play)
TTITLE2=Graham Central Station - Your Love
TTITLE3=Sister Sledge - Love Don't You Go Through No Changes On me
TTITLE4=Eddie Floyd - Talk To The Man
TTITLE5=Shirley Brown - It Ain't No Fun
TTITLE6=The Jimmy Castor Bunch - The Bertha Butt Boogie (Part 1)
TTITLE7=Major Harris - Love Won't Let Me Wait
TTITLE8=Frederick Knight - I Betcha Didn't Know That
TTITLE9=Rufus Thomas - Jump Back' 75
TTITLE10=The Blackbyrds - Walking In Rhythm
TTITLE11=Johnny Guitar Watson - I Don't Want To Be A Lone Ranger
TTITLE12=The Staple Singers - My Main Man
TTITLE13=Johnny Taylor - Try Me Tonight
TTITLE14=Little Milton - If You Talk In Your Steep
EXTD=
EXTT0=
EXTT1=
EXTT2=
EXTT3=
EXTT4=
EXTT5=
EXTT6=
EXTT7=
EXTT8=
EXTT9=
EXTT10=
EXTT11=
EXTT12=
EXTT13=
EXTT14=
PLAYORDER=
